<?xml version="1.0" encoding="UTF-8" standalone="no"?>
<!-- Created with Inkscape (http://www.inkscape.org/) -->

<svg
   xmlns:svg="http://www.w3.org/2000/svg"
   xmlns="http://www.w3.org/2000/svg"
   version="1.1"
   width="2000"
   height="2000"
   id="svg2">
  <defs
     id="defs4" />
  <g
     transform="translate(260,967.63782)"
     id="layer1">
    <g
       transform="translate(-335.55556,-916.66667)"
       id="g7641">
      <path
         d="m 983.47599,40.37763 696.71941,-894.42434 180.879,168.07975 -877.59841,726.34459 z"
         id="path6543"
         style="fill:#2d68d4;fill-opacity:1;stroke:none" />
      <path
         d="M 981.69874,39.087813 1330.4896,-1039.6882 1557.9468,-943.60907 981.69874,39.087813 z"
         id="path6543-7"
         style="fill:#2d68d4;fill-opacity:1;stroke:none" />
      <path
         d="M 985.41507,44.28622 2094.058,-193.03987 2124.5797,51.98329 985.41507,44.28622 z"
         id="path6543-7-9"
         style="fill:#2d68d4;fill-opacity:1;stroke:none" />
      <path
         d="M 978.49163,51.229253 1019.6985,1184.2405 773.09752,1171.7509 978.49163,51.229253 z"
         id="path6543-7-8"
         style="fill:#2d68d4;fill-opacity:1;stroke:none" />
      <path
         d="M 984.77085,42.135513 1945.3839,-560.05638 2057.8678,-340.24885 984.77085,42.135513 z"
         id="path6543-7-2"
         style="fill:#2d68d4;fill-opacity:1;stroke:none" />
      <path
         d="M 985.18367,46.546482 2108.1375,202.711 2053.0156,443.39661 985.18367,46.546482 z"
         id="path6543-7-83"
         style="fill:#2d68d4;fill-opacity:1;stroke:none" />
      <path
         d="M 984.2193,48.507821 1986.0393,579.32731 1851.9223,786.64499 984.2193,48.507821 z"
         id="path6543-7-0"
         style="fill:#2d68d4;fill-opacity:1;stroke:none" />
      <path
         d="M 982.6706,50.051727 1742.5225,891.50143 1545.587,1040.4455 982.6706,50.051727 z"
         id="path6543-7-22"
         style="fill:#2d68d4;fill-opacity:1;stroke:none" />
      <path
         d="M 972.65915,45.517618 -135.98371,282.84381 -166.50539,37.820528 972.65915,45.517618 z"
         id="path6543-7-3"
         style="fill:#2d68d4;fill-opacity:1;stroke:none" />
      <path
         d="M 972.85631,43.444128 -150.09747,-112.72038 -94.975575,-353.40597 972.85631,43.444128 z"
         id="path6543-7-02"
         style="fill:#2d68d4;fill-opacity:1;stroke:none" />
      <path
         d="M 973.79783,41.450082 -28.022177,-489.36936 106.09479,-696.68704 973.79783,41.450082 z"
         id="path6543-7-97"
         style="fill:#2d68d4;fill-opacity:1;stroke:none" />
      <path
         d="M 975.25951,39.884914 215.40757,-801.56483 412.34312,-950.50906 975.25951,39.884914 z"
         id="path6543-7-98"
         style="fill:#2d68d4;fill-opacity:1;stroke:none" />
      <path
         d="M 977.19765,38.831261 550.96316,-1011.7575 786.96393,-1084.3633 977.19765,38.831261 z"
         id="path6543-7-5"
         style="fill:#2d68d4;fill-opacity:1;stroke:none" />
      <path
         d="M 979.53214,38.494472 938.32524,-1094.5168 1184.9261,-1082.027 979.53214,38.494472 z"
         id="path6543-7-27"
         style="fill:#2d68d4;fill-opacity:1;stroke:none" />
      <path
         d="M 980.66979,51.010564 1406.9042,1101.5993 1170.9035,1174.2051 980.66979,51.010564 z"
         id="path6543-7-22-0"
         style="fill:#2d68d4;fill-opacity:1;stroke:none" />
      <path
         d="M 976.36781,50.70286 627.57695,1129.4787 400.11953,1033.3999 976.36781,50.70286 z"
         id="path6543-7-8-3"
         style="fill:#2d68d4;fill-opacity:1;stroke:none" />
      <path
         d="M 974.58732,49.4295 277.86802,943.8538 96.988877,775.77411 974.58732,49.4295 z"
         id="path6543-7-8-3-9"
         style="fill:#2d68d4;fill-opacity:1;stroke:none" />
      <path
         d="M 973.27811,47.649785 12.664951,649.84165 -99.819201,430.0341 973.27811,47.649785 z"
         id="path6543-7-8-3-9-9"
         style="fill:#2d68d4;fill-opacity:1;stroke:none" />
    </g>
  </g>
</svg>
